<svg width="80" height="80" viewBox="0 0 80 80" fill="none" xmlns="http://www.w3.org/2000/svg">
<path d="M40 3.59375C37.4881 3.59375 34.9414 4.17656 32.4722 5.19375C32.14 6.21328 31.8664 7.5 31.7102 8.90531C31.5055 10.7475 31.4398 12.7656 31.418 14.6583C36.7092 14.0795 43.2908 14.0795 48.582 14.6583C48.5602 12.7656 48.4945 10.7473 48.2898 8.90516C48.1336 7.50016 47.8602 6.21328 47.5278 5.19375C45.0586 4.17656 42.5119 3.59375 40 3.59375ZM55.7131 6.61438C57.1686 7.71656 58.5423 8.93906 59.8197 10.2447C60.0588 9.20563 60.5525 8.26094 61.2306 7.47984L55.7131 6.61438ZM29.1459 6.84719C23.728 10.0066 18.9823 15.0838 16.2472 20.3369C11.0784 30.2644 10.0456 44.8612 16.1644 53.8994C20.7478 60.6684 31.2931 63.2812 40 63.2812C48.707 63.2812 59.2523 60.6687 63.8355 53.8992C69.9545 44.8612 68.9214 30.2644 63.7527 20.3367C61.0177 15.0836 56.272 10.0067 50.8542 6.84719C50.9445 7.4175 51.0194 8.00156 51.0852 8.59469C51.323 10.7344 51.3839 13.0005 51.3998 15.0427C54.3225 15.5355 56.5625 16.25 57.5 17.1875C62.5 22.1875 69.3027 38.2336 60 52.1875C54.1166 61.0125 25.8834 61.0125 20 52.1875C10.6973 38.2336 17.5 22.1875 22.5 17.1875C23.4375 16.25 25.6773 15.5355 28.6 15.0427C28.6161 13.0005 28.677 10.7344 28.9148 8.59469C28.9805 8.00156 29.0556 7.4175 29.1459 6.84719ZM10 7.5C8.61922 7.5 7.5 8.61922 7.5 10C7.50004 10.4075 7.59972 10.8089 7.79036 11.1691C7.98099 11.5293 8.25679 11.8375 8.59375 12.0667V22.7344L11.4062 20.625V12.0641C11.7428 11.8351 12.0184 11.5273 12.209 11.1676C12.3996 10.8079 12.4995 10.4071 12.5 10C12.5 8.61922 11.3808 7.5 10 7.5ZM66.0641 8.075C64.0625 8.075 62.4703 9.66719 62.4703 11.6687C62.4703 13.6703 64.0625 15.2625 66.0641 15.2625C68.0656 15.2625 69.6578 13.6703 69.6578 11.6687C69.6578 9.66719 68.0656 8.075 66.0641 8.075ZM70.0128 16.7008C68.9222 17.5597 67.5506 18.075 66.0644 18.075C65.948 18.075 65.8331 18.0708 65.7184 18.0645C65.845 18.2907 65.969 18.5183 66.0903 18.7473L70.7547 22.2458L70.0128 16.7008ZM32.6969 17.0914C30.0005 17.1055 26.8756 17.6784 24.3792 19.6102C20.2177 22.8302 17.6552 37.5419 19.1464 42.5419C21.7377 32.8908 24.1453 23.1638 36.0089 17.3428C34.9133 17.171 33.8058 17.0871 32.6969 17.0914ZM11.5945 23.9992L6.27344 27.9903L4.01094 39.3041L9.97656 46.4625C8.26609 39.1933 9.07406 31.0369 11.5945 23.9992ZM68.4055 23.9992C70.9258 31.037 71.7339 39.1933 70.0234 46.4623L75.9891 39.3037L73.7266 27.99L68.4055 23.9992ZM16.6633 58.7391C16.1034 58.9219 15.5302 59.2712 15.0567 59.7445C14.4105 60.3908 14.013 61.218 13.9373 61.9483C13.9702 62.0052 14.0316 62.1291 14.2077 62.2861C14.5909 62.628 15.2534 63.0939 16.1025 63.592C17.8005 64.5889 20.2509 65.7416 23.0095 66.8144C26.3184 68.1014 30.0955 69.2681 33.5936 69.9987V65.6847C27.4264 64.8847 21.1098 62.8214 16.6633 58.7391ZM63.3367 58.7391C58.8902 62.8211 52.5734 64.8844 46.4062 65.6844V69.9984C49.9042 69.2678 53.6813 68.1011 56.9903 66.8141C59.7489 65.7414 62.1994 64.5886 63.8973 63.5919C64.7464 63.0934 65.4089 62.6278 65.7922 62.2856C65.9683 62.1287 66.0297 62.0048 66.0625 61.9481C65.9872 61.2177 65.5895 60.3903 64.9433 59.7442C64.4698 59.2708 63.8964 58.9217 63.3367 58.7388V58.7391ZM12.0816 64.1566L2.8125 70.3359V77.1875H8.59375V74.375H11.4062V77.1875H68.5938V74.375H71.4062V77.1875H77.1875V70.3359L67.9184 64.1566C67.8345 64.2328 67.7497 64.3081 67.6648 64.3842C67.052 64.9306 66.2692 65.4608 65.3214 66.0173C63.4256 67.1298 60.8761 68.3209 58.0097 69.4356C52.2769 71.665 45.3516 73.5938 40 73.5938C34.6484 73.5938 27.7231 71.6652 21.9903 69.4359C19.1239 68.3211 16.5744 67.1302 14.6786 66.0175C13.7308 65.4613 12.948 64.9308 12.3352 64.3842C12.2503 64.3081 12.1655 64.2328 12.0816 64.1566ZM36.4062 65.9662V70.4962C37.6931 70.6778 38.9081 70.7812 40 70.7812C41.0919 70.7812 42.3069 70.6778 43.5938 70.4962V65.9662C41.2009 66.1361 38.7991 66.1361 36.4062 65.9662Z" fill="white"/>
</svg>
